# xmcd
#
# Track frame offsets:
#	150
#	15832
#	34648
#	54183
#	71404
#	92092
#	107039
#	118026
#	136117
#	152372
#	169950
#	192063
#	205383
#	221956
#	240208
#	259539
#	276795
#	294866
#	312942
#	330284
#	345930
#
# Disc length: 4842 seconds
#
# Revision: 0
# Processed by: cddbd v1.4PL0 Copyright (c) Steve Scherf et al.
# Submitted via: audiograbber 1.81.01
#
DISCID=1112e815
DTITLE=Diskoteka 22 - Diskoteka 22
DYEAR=2003
DGENRE=Dance
TTITLE0=Tania Bulanova - Pozvoni
TTITLE1=Jura Satunov - Zabud [Remix 2003]
TTITLE2=A.Gubin - Kroska
TTITLE3=Reflex - Sneg v dushe
TTITLE4=Virus - Padari mnie
TTITLE5=Ruki vverx - Na cuzoi teritorij
TTITLE6=Krasnaja Plesen - Ona,sentiabr i strannyje bryzgi
TTITLE7=Demo - Ne rugai menia
TTITLE8=F.Kirkorov i InGrid - Ty eto bros
TTITLE9=Pacany i akula - Ja toze tvoi
TTITLE10=Tania Bulanova - Liubila tolko tebia
TTITLE11=Zasmin - Golovolomka
TTITLE12=A.Gubin - Bud so mnoi
TTITLE13=Nensi - On ne verniotsia k tebe
TTITLE14=Reflex - Ja tebia budu vsiegda zdat
TTITLE15=Licei - Ty stanes vzroslaja
TTITLE16=Ruki vverx - On tebia celuet
TTITLE17=Turbomoda - Ja ne placu
TTITLE18=Blestiascije - A ja letala
TTITLE19=Dinamit - Ja nezabudu
TTITLE20=Sveta - Leti za oblaka
EXTD=CuLer
EXTT0=
EXTT1=
EXTT2=
EXTT3=
EXTT4=
EXTT5=
EXTT6=
EXTT7=
EXTT8=
EXTT9=
EXTT10=
EXTT11=
EXTT12=
EXTT13=
EXTT14=
EXTT15=
EXTT16=
EXTT17=
EXTT18=
EXTT19=
EXTT20=
PLAYORDER=
